<?xml version="1.0" encoding="UTF-8"?>
<svg width="18px" height="10px" viewBox="0 0 18 10" version="1.1" xmlns="http://www.w3.org/2000/svg" xmlns:xlink="http://www.w3.org/1999/xlink">
    <title>arrow</title>
    <g id="Page-1" stroke="none" stroke-width="1" fill="none" fill-rule="evenodd">
        <g id="DiFood---Website-Design" transform="translate(-932.000000, -680.000000)" fill="#6A6EF9" fill-rule="nonzero">
            <g id="Gist-Growth-Hub" transform="translate(386.000000, 656.000000)">
                <g id="DiFood-Selections" transform="translate(2.000000, 0.000000)">
                    <g id="Group-21" transform="translate(526.000000, 0.000000)">
                        <path d="M31.6402136,29.8910926 L24.0971233,37.6305663 C23.6172916,38.1231446 22.8393269,38.1231446 22.3597282,37.6305663 C21.8800906,37.1384263 21.8800906,36.3402225 22.3597282,35.8481223 L29.0341985,28.9998705 L22.3599223,22.1518578 C21.8802847,21.6595186 21.8802847,20.8613945 22.3599223,20.3692544 C22.8395598,19.8769152 23.6174858,19.8769152 24.0973174,20.3692544 L31.6404077,28.1088477 C31.8802265,28.3550372 32,28.6773543 32,28.9998307 C32,29.3224665 31.8799936,29.6450225 31.6402136,29.8910926 Z" id="arrow" transform="translate(27.000000, 29.000000) rotate(-270.000000) translate(-27.000000, -29.000000) "></path>
                    </g>
                </g>
            </g>
        </g>
    </g>
</svg>