<?xml version="1.0" encoding="UTF-8"?>
<svg width="54px" height="63px" viewBox="0 0 54 63" version="1.1" xmlns="http://www.w3.org/2000/svg" xmlns:xlink="http://www.w3.org/1999/xlink">
    <title>Shape</title>
    <g id="Page-1" stroke="none" stroke-width="1" fill="none" fill-rule="evenodd">
        <g id="DiFood---Website-Design" transform="translate(-1372.000000, -3818.000000)" fill="#FFFFFF" fill-rule="nonzero">
            <g id="How-does-it-work?" transform="translate(0.000000, 3162.000000)">
                <path d="M1393.74211,719 L1389.35668,719 L1377.77055,719 L1377.77055,719 C1377.38086,719 1377.0425,718.810726 1376.8353,718.519243 C1376.82389,718.511672 1376.81629,718.504101 1376.80868,718.492744 C1376.80488,718.485174 1376.80108,718.47571 1376.79728,718.468139 C1376.67942,718.290221 1376.61099,718.076341 1376.61099,717.843533 L1376.61099,717.843533 L1376.61099,716.840379 L1376.61099,713.528076 L1393.74211,719 Z M1397.29684,689.755205 L1388.21803,686.857413 L1375.1948,682.702839 L1375.1948,682.702839 C1374.47435,682.470032 1373.89077,682.865615 1373.89077,683.582965 L1373.89077,683.582965 L1373.89077,684.714826 L1373.89077,688.95836 L1373.89077,691.348896 L1373.89077,695.590536 L1373.89077,697.981073 L1373.89077,702.222713 L1373.89077,704.613249 L1373.89077,708.856782 L1373.89077,709.988644 L1373.89077,709.988644 C1373.89077,710.251735 1373.9687,710.512934 1374.10177,710.757098 C1374.10557,710.764669 1374.10937,710.776025 1374.11317,710.783596 C1374.12078,710.802524 1374.13218,710.817666 1374.13979,710.827129 C1374.3774,711.226498 1374.75949,711.563407 1375.1948,711.699685 L1375.1948,711.699685 L1388.21803,715.856151 L1397.29684,718.753943 C1398.01729,718.981073 1398.59897,718.585489 1398.59897,717.868139 L1398.59897,691.466246 C1398.59517,690.748896 1398.01729,689.984227 1397.29684,689.755205 Z M1404.26563,719 L1408.65486,719 L1420.24289,719 L1420.24289,719 C1420.63258,719 1420.97285,718.810726 1421.17815,718.519243 C1421.18575,718.511672 1421.19715,718.504101 1421.20476,718.492744 C1421.21046,718.485174 1421.21426,718.47571 1421.21807,718.468139 C1421.33592,718.290221 1421.40436,718.076341 1421.40436,717.843533 L1421.40436,717.843533 L1421.40436,716.840379 L1421.40436,713.528076 L1404.26563,719 Z M1399.40877,691.466246 L1399.40877,717.868139 C1399.40877,718.585489 1399.99235,718.981073 1400.7128,718.75205 L1409.79351,715.854259 L1422.81484,711.697792 L1422.81484,711.697792 C1423.25015,711.563407 1423.63604,711.224606 1423.87366,710.825237 C1423.88126,710.808202 1423.89266,710.79306 1423.90217,710.783596 C1423.90597,710.776025 1423.90977,710.764669 1423.91358,710.757098 C1424.04474,710.511041 1424.12268,710.244164 1424.12268,709.988644 L1424.12268,709.988644 L1424.12268,708.85489 L1424.12268,704.613249 L1424.12268,702.22082 L1424.12268,697.981073 L1424.12268,695.588644 L1424.12268,691.347003 L1424.12268,688.956467 L1424.12268,684.712934 L1424.12268,683.581073 L1424.12268,683.581073 C1424.12268,682.863722 1423.53529,682.468139 1422.81484,682.700946 L1422.81484,682.700946 L1409.79351,686.855521 L1400.7128,689.753312 C1399.99235,689.984227 1399.40877,690.748896 1399.40877,691.466246 Z M1410.80671,656.569716 C1406.97825,656.263091 1403.14978,656.088959 1399.31562,656.018927 L1399.31562,656 C1399.20917,656.003785 1399.11032,656.011356 1399.00577,656.007571 C1398.90122,656.007571 1398.80237,656.003785 1398.69782,656 L1398.69782,656.018927 C1394.86176,656.088959 1391.0314,656.263091 1387.20674,656.573502 C1377.19457,657.37224 1370.54514,665.200631 1372.27308,672.879495 C1372.34341,673.212618 1372.34341,673.566562 1372.47648,673.884543 C1373.25206,675.752681 1374.71196,677.300946 1375.78028,679.027129 C1377.16606,681.230284 1388.92327,676.483281 1387.40823,673.545741 C1386.83606,672.459306 1384.61198,669.457413 1384.43899,668.255521 C1384.28312,667.176656 1385.71831,666.328707 1387.04516,666.226498 C1390.53145,665.942587 1407.47249,665.946372 1410.96068,666.226498 C1412.28182,666.330599 1413.71512,667.172871 1413.56114,668.255521 C1413.39196,669.461199 1411.16788,672.459306 1410.5957,673.545741 C1409.07496,676.485174 1420.83598,681.228391 1422.21605,679.027129 C1423.29007,677.304732 1424.74998,675.752681 1425.52556,673.880757 C1425.65482,673.566562 1425.65862,673.210726 1425.72516,672.879495 C1427.4588,665.204416 1420.81317,657.37224 1410.80671,656.569716 Z" id="Shape"></path>
            </g>
        </g>
    </g>
</svg>