<?xml version="1.0" encoding="UTF-8"?>
<svg width="18px" height="18px" viewBox="0 0 18 18" version="1.1" xmlns="http://www.w3.org/2000/svg" xmlns:xlink="http://www.w3.org/1999/xlink">
    <title>Combined Shape</title>
    <g id="Page-1" stroke="none" stroke-width="1" fill="none" fill-rule="evenodd">
        <g id="DiFood---Website-Design" transform="translate(-574.000000, -437.000000)" fill="#A99EB3" fill-rule="nonzero">
            <g id="Heaidng" transform="translate(-75.000000, -65.000000)">
                <path d="M651.221532,502 L659.473652,510.246239 L666.536821,517.304409 C667.154393,517.921506 667.154393,518.925567 666.536821,519.542699 C665.909187,520.169885 664.889458,520.134729 664.297005,519.542699 L664.297005,519.542699 L658.341343,512.887876 L657.491645,513.736968 L651.049601,507.299516 C650.449092,506.699435 650.091545,505.885182 650.015553,504.944683 C649.948885,504.119603 650.097385,503.216932 650.44494,502.334371 L650.44494,502.334371 L650.576624,502 L651.221532,502 Z M654.450431,512.333333 L656.666667,514.550523 L651.674445,519.545051 C651.042776,520.177011 650.038671,520.125747 649.458243,519.545051 C648.847252,518.933777 648.847252,517.9391 649.458243,517.327826 L649.458243,517.327826 L654.450431,512.333333 Z M663.270907,502 L664.01669,502.745783 L661.157719,505.60472 L661.903538,506.350538 L664.762474,503.491602 L665.508292,504.237421 L662.649321,507.096392 L663.395175,507.842211 L666.254146,504.983274 L667,505.729128 L663.270907,509.458186 C662.814707,509.914386 662.208971,510.186855 661.56521,510.225267 C661.402143,510.235001 661.241677,510.271937 661.089084,510.333333 L661.089084,510.333333 L658.666667,507.910916 C658.727992,507.758323 658.764963,507.597892 658.774698,507.43479 C658.813216,506.791029 659.085614,506.185293 659.541814,505.729093 L659.541814,505.729093 L663.270907,502 Z" id="Combined-Shape"></path>
            </g>
        </g>
    </g>
</svg>