<svg width="18" height="19" xmlns="http://www.w3.org/2000/svg"><path d="M5.54 18.668c.664 0 .845-.262.845-.584 0-.289-.01-1.053-.015-2.066-3.44.732-4.166-1.63-4.166-1.63C1.642 12.985.828 12.61.828 12.61c-1.12-.753.087-.738.087-.738 1.242.084 1.894 1.252 1.894 1.252 1.103 1.858 2.895 1.321 3.602 1.011.111-.786.43-1.321.783-1.625-2.746-.304-5.633-1.349-5.633-6.005 0-1.326.48-2.41 1.273-3.26-.14-.308-.557-1.543.108-3.217 0 0 1.036-.326 3.4 1.246.99-.27 2.041-.404 3.092-.41 1.052.006 2.103.14 3.092.41C14.876-.298 15.911.028 15.911.028c.665 1.674.248 2.91.124 3.217.788.85 1.268 1.934 1.268 3.26 0 4.668-2.89 5.696-5.643 5.995.433.364.835 1.11.835 2.248 0 1.626-.015 2.933-.015 3.328 0 .318.137.577.85.577l-7.79.015z" fill="#fff" fill-rule="nonzero"/></svg>