<?xml version="1.0" encoding="UTF-8"?>
<svg width="18px" height="19px" viewBox="0 0 18 19" version="1.1" xmlns="http://www.w3.org/2000/svg" xmlns:xlink="http://www.w3.org/1999/xlink">
    <title>Icon_83_</title>
    <g id="Page-1" stroke="none" stroke-width="1" fill="none" fill-rule="evenodd">
        <g id="DiFood---Website-Design" transform="translate(-924.000000, -5524.000000)" fill="#FFFFFF" fill-rule="nonzero">
            <g id="Footer" transform="translate(0.000000, 5045.000000)">
                <g id="Social-Icons" transform="translate(860.000000, 468.000000)">
                    <g id="twitter" transform="translate(53.330000, 0.000000)">
                        <g id="github" transform="translate(11.000000, 11.000000)">
                            <path d="M5.21004697,18.6680965 C5.87393115,18.6680965 6.05501169,18.4062765 6.05501169,18.0837851 C6.05501169,17.7951297 6.04474424,17.0306711 6.03961051,16.0176935 C2.59978038,16.7504163 1.87429147,14.387502 1.87429147,14.387502 C1.31168172,12.9850612 0.498452761,12.6098325 0.498452761,12.6098325 C-0.621633029,11.8565748 0.585026059,11.871976 0.585026059,11.871976 C1.82692118,11.9564491 2.4791378,13.1241386 2.4791378,13.1241386 C3.58172225,14.9820809 5.37385952,14.4453731 6.08091367,14.135016 C6.1922222,13.3486224 6.5107466,12.8137814 6.86404032,12.5099582 C4.11772997,12.2059016 1.23117555,11.1609549 1.23117555,6.50513158 C1.23117555,5.17876332 1.71047893,4.09484697 2.50387303,3.24451517 C2.36479571,2.93742499 1.9473304,1.70183035 2.61214799,0.028235496 C2.61214799,0.028235496 3.64776064,-0.297522788 6.01277512,1.27409759 C7.00218424,1.00411024 8.05319807,0.870166649 9.10444525,0.863866166 C10.1556924,0.869933298 11.2067063,1.00411024 12.1961154,1.27409759 C14.5457287,-0.297522788 15.5813413,0.028235496 15.5813413,0.028235496 C16.2459256,1.70183035 15.8286936,2.93742499 15.7050175,3.24451517 C16.4932779,4.09461362 16.9725812,5.17876332 16.9725812,6.50513158 C16.9725812,11.1733225 14.0820598,12.2007678 11.3303824,12.4996907 C11.7632489,12.8644187 12.1650797,13.6095091 12.1650797,14.7482629 C12.1650797,16.3744875 12.1496785,17.6812543 12.1496785,18.0758512 C12.1496785,18.3943755 12.2873557,18.6529287 12.9997769,18.6529287 L5.21004697,18.6680965 Z" id="Icon_83_"></path>
                        </g>
                    </g>
                </g>
            </g>
        </g>
    </g>
</svg>