<?xml version="1.0" encoding="UTF-8"?>
<svg width="65px" height="65px" viewBox="0 0 65 65" version="1.1" xmlns="http://www.w3.org/2000/svg" xmlns:xlink="http://www.w3.org/1999/xlink">
    <title>Combined Shape</title>
    <g id="Page-1" stroke="none" stroke-width="1" fill="none" fill-rule="evenodd">
        <g id="DiFood---Website-Design" transform="translate(-1074.000000, -3817.000000)" fill="#FFFFFF" fill-rule="nonzero">
            <g id="How-does-it-work?" transform="translate(0.000000, 3162.000000)">
                <path d="M1133.16016,674.042969 C1134.21248,674.042969 1135.06445,674.894943 1135.06445,675.947266 L1135.06445,675.947266 L1135.06445,716.191406 L1137.0957,716.191406 C1138.14803,716.191406 1139,717.043381 1139,718.095703 C1139,719.148025 1138.14803,720 1137.0957,720 L1137.0957,720 L1075.9043,720 C1074.85197,720 1074,719.148025 1074,718.095703 C1074,717.043381 1074.85197,716.191406 1075.9043,716.191406 L1075.9043,716.191406 L1077.93555,716.191406 L1077.93555,694.990234 C1077.93555,693.937912 1078.78752,693.085938 1079.83984,693.085938 L1079.83984,693.085938 L1087.45703,693.085938 C1088.50935,693.085938 1089.36133,693.937912 1089.36133,694.990234 L1089.36133,694.990234 L1089.36133,716.191406 L1093.16992,716.191406 L1093.16992,702.607422 C1093.16992,701.5551 1094.0219,700.703125 1095.07422,700.703125 L1095.07422,700.703125 L1102.69141,700.703125 C1103.74373,700.703125 1104.5957,701.5551 1104.5957,702.607422 L1104.5957,702.607422 L1104.5957,716.191406 L1108.4043,716.191406 L1108.4043,687.373047 C1108.4043,686.320725 1109.25627,685.46875 1110.30859,685.46875 L1110.30859,685.46875 L1117.92578,685.46875 C1118.9781,685.46875 1119.83008,686.320725 1119.83008,687.373047 L1119.83008,687.373047 L1119.83008,716.191406 L1123.63867,716.191406 L1123.63867,675.947266 C1123.63867,674.894943 1124.49065,674.042969 1125.54297,674.042969 L1125.54297,674.042969 Z M1129.35156,655 C1132.50159,655 1135.06445,657.562866 1135.06445,660.712891 C1135.06445,663.862915 1132.50159,666.425781 1129.35156,666.425781 C1128.18221,666.425781 1127.09567,666.070213 1126.18914,665.464706 L1126.18914,665.464706 L1119.54493,670.446625 C1119.71354,670.984688 1119.83008,671.545563 1119.83008,672.138672 C1119.83008,675.288696 1117.26721,677.851562 1114.11719,677.851562 C1113.23794,677.851562 1112.41473,677.635345 1111.66987,677.278786 L1111.66987,677.278786 L1104.02293,684.925728 C1104.37949,685.670586 1104.5957,686.493797 1104.5957,687.373047 C1104.5957,690.523071 1102.03284,693.085938 1098.88281,693.085938 C1095.73279,693.085938 1093.16992,690.523071 1093.16992,687.373047 C1093.16992,687.136002 1093.21158,686.910362 1093.23985,686.680756 L1093.23985,686.680756 L1087.60283,683.862495 C1086.5753,684.852333 1085.18477,685.46875 1083.64844,685.46875 C1080.49841,685.46875 1077.93555,682.905884 1077.93555,679.755859 C1077.93555,676.605835 1080.49841,674.042969 1083.64844,674.042969 C1086.79846,674.042969 1089.36133,676.605835 1089.36133,679.755859 C1089.36133,679.992905 1089.31967,680.218544 1089.2914,680.448151 L1089.2914,680.448151 L1094.92842,683.266411 C1095.95595,682.276573 1097.34648,681.660156 1098.88281,681.660156 C1099.76206,681.660156 1100.58527,681.876373 1101.33013,682.232933 L1101.33013,682.232933 L1108.97707,674.585991 C1108.62051,673.841133 1108.4043,673.017921 1108.4043,672.138672 C1108.4043,668.988647 1110.96716,666.425781 1114.11719,666.425781 C1115.28654,666.425781 1116.37308,666.781349 1117.27961,667.386856 L1117.27961,667.386856 L1123.92382,662.404938 C1123.75521,661.866875 1123.63867,661.306 1123.63867,660.712891 C1123.63867,657.562866 1126.20154,655 1129.35156,655 Z" id="Combined-Shape"></path>
            </g>
        </g>
    </g>
</svg>