<?xml version="1.0" encoding="UTF-8"?>
<svg width="20px" height="19px" viewBox="0 0 20 19" version="1.1" xmlns="http://www.w3.org/2000/svg" xmlns:xlink="http://www.w3.org/1999/xlink">
    <title>linkedin</title>
    <g id="Page-1" stroke="none" stroke-width="1" fill="none" fill-rule="evenodd">
        <g id="DiFood---Website-Design" transform="translate(-923.000000, -5523.000000)" fill="#FFFFFF" fill-rule="nonzero">
            <g id="Footer" transform="translate(0.000000, 5045.000000)">
                <g id="Social-Icons" transform="translate(860.000000, 468.000000)">
                    <g id="twitter" transform="translate(53.330000, 0.000000)">
                        <g id="linkedin" transform="translate(10.000000, 10.000000)">
                            <path d="M18.99525,19 L18.99525,18.9992083 L19,18.9992083 L19,12.0309583 C19,8.62204167 18.266125,5.99608333 14.280875,5.99608333 C12.3650417,5.99608333 11.079375,7.04741667 10.5545,8.044125 L10.4990833,8.044125 L10.4990833,6.31433333 L6.72045833,6.31433333 L6.72045833,18.9992083 L10.6550417,18.9992083 L10.6550417,12.718125 C10.6550417,11.0643333 10.9685417,9.46516667 13.0165833,9.46516667 C15.0345417,9.46516667 15.064625,11.3525 15.064625,12.8242083 L15.064625,19 L18.99525,19 Z" id="Path"></path>
                            <polygon id="Path" points="0.3135 6.315125 4.25283333 6.315125 4.25283333 19 0.3135 19"></polygon>
                            <path d="M2.28158333,0 C1.02204167,0 0,1.02204167 0,2.28158333 C0,3.541125 1.02204167,4.58454167 2.28158333,4.58454167 C3.541125,4.58454167 4.56316667,3.541125 4.56316667,2.28158333 C4.562375,1.02204167 3.54033333,0 2.28158333,0 Z" id="Path"></path>
                        </g>
                    </g>
                </g>
            </g>
        </g>
    </g>
</svg>