<?xml version="1.0" encoding="UTF-8"?>
<svg width="15px" height="20px" viewBox="0 0 15 20" version="1.1" xmlns="http://www.w3.org/2000/svg" xmlns:xlink="http://www.w3.org/1999/xlink">
    <title>Shape</title>
    <g id="Page-1" stroke="none" stroke-width="1" fill="none" fill-rule="evenodd">
        <g id="DiFood---Website-Design" transform="translate(-948.000000, -436.000000)" fill="#A99EB3" fill-rule="nonzero">
            <g id="Heaidng" transform="translate(-75.000000, -65.000000)">
                <path d="M1030.5,501 C1026.36448,501 1023,504.249301 1023,508.243212 C1023,513.19978 1029.71177,520.476313 1029.99752,520.783657 C1030.26593,521.072368 1030.73455,521.07186 1031.00248,520.783657 C1031.28823,520.476313 1038,513.19978 1038,508.243212 C1038,504.249301 1034.63548,501 1030.5,501 Z M1030.3256,511.847458 C1028.20972,511.847458 1026.48837,510.174712 1026.48837,508.118624 C1026.48837,506.062536 1028.20976,504.389831 1030.3256,504.389831 C1032.44144,504.389831 1034.16279,506.062576 1034.16279,508.118664 C1034.16279,510.174752 1032.44144,511.847458 1030.3256,511.847458 Z" id="Shape"></path>
            </g>
        </g>
    </g>
</svg>