<?xml version="1.0" encoding="UTF-8"?>
<svg width="53px" height="53px" viewBox="0 0 53 53" version="1.1" xmlns="http://www.w3.org/2000/svg" xmlns:xlink="http://www.w3.org/1999/xlink">
    <title>Combined Shape</title>
    <g id="Page-1" stroke="none" stroke-width="1" fill="none" fill-rule="evenodd">
        <g id="DiFood---Website-Design" transform="translate(-494.000000, -3823.000000)" fill="#FFFFFF" fill-rule="nonzero">
            <g id="How-does-it-work?" transform="translate(0.000000, 3162.000000)">
                <path d="M539.336426,687.153284 L544.442468,687.154417 C545.854298,687.154417 547,688.304472 547,689.723063 L547,689.723063 L547,711.432487 C547,712.851077 545.854298,714 544.442468,714 L544.442468,714 L539.336426,714 C537.926851,714 536.780022,712.851077 536.780022,711.432487 L536.780022,711.432487 L536.780022,689.718531 C536.782277,688.302206 537.926851,687.154417 539.336426,687.153284 L539.336426,687.153284 Z M542.407043,708.340367 C541.58949,707.515499 540.261107,707.515499 539.442426,708.340367 C538.623745,709.162968 538.623745,710.494313 539.442426,711.318048 C540.261107,712.141782 541.588362,712.141782 542.407043,711.318048 C543.224596,710.494313 543.224596,709.161835 542.407043,708.340367 Z M522.945894,661 C526.439384,661 528.359788,661.9665 528.186128,663.808855 C527.882788,667.041474 527.012235,668.698008 526.790086,671.971417 C526.177767,681.010967 533.881937,689.534975 533.883064,689.534975 C533.977788,689.718531 534.02966,689.921349 534.02855,690.128698 L534.02855,690.128698 L534.02855,709.621857 C534.027405,710.332286 533.456809,710.906747 532.752022,710.906747 L532.752022,710.906747 L504.151246,710.906018 C504.055958,710.906001 503.961752,710.905985 503.868619,710.905968 L500.000249,710.905018 C499.940729,710.904999 499.882114,710.904979 499.824394,710.90496 L497.607804,710.904029 C497.577648,710.904013 497.548218,710.903997 497.519504,710.903981 L496.554151,710.903348 C495.143448,710.903348 494.001129,709.397512 494.001129,707.535894 C494.000001,705.672011 495.144576,704.162776 496.554151,704.165042 C495.144576,704.162776 494.000001,702.658073 494.000001,700.794189 C494.001129,698.938238 495.142321,697.430135 496.554151,697.427869 C495.142321,697.431268 494.000001,695.919767 494.000001,694.061549 C493.998874,692.203331 495.142321,690.691829 496.554151,690.691829 C495.142321,690.692962 494.000001,689.18486 494.000001,687.324376 C494.000001,681.948008 497.557768,683.996579 506.086257,683.979584 C512.286129,683.969386 517.704533,682.299256 517.704533,679.255858 C517.704533,677.807383 517.581794,675.803779 517.474398,673.740086 L517.432585,672.912577 C517.277948,669.737171 517.202668,666.575673 517.704533,665.212716 C518.099214,664.141975 519.452405,661 522.945894,661 Z" id="Combined-Shape"></path>
            </g>
        </g>
    </g>
</svg>