<svg width="24" height="19" xmlns="http://www.w3.org/2000/svg"><path d="M23.355 2.271a9.47 9.47 0 01-2.726.747A4.76 4.76 0 0022.716.392a9.502 9.502 0 01-3.014 1.152 4.747 4.747 0 00-8.088 4.33A13.474 13.474 0 011.83.914 4.746 4.746 0 003.299 7.25a4.713 4.713 0 01-2.15-.594v.06a4.75 4.75 0 003.807 4.654 4.73 4.73 0 01-2.143.082 4.752 4.752 0 004.434 3.296 9.524 9.524 0 01-5.896 2.032c-.382 0-.761-.022-1.132-.067a13.426 13.426 0 007.276 2.133C16.225 18.847 21 11.615 21 5.342c0-.206-.005-.411-.014-.614a9.625 9.625 0 002.369-2.457z" fill="#F1F2F2" fill-rule="nonzero"/></svg>