<?xml version="1.0" encoding="UTF-8"?>
<svg width="73px" height="73px" viewBox="0 0 73 73" version="1.1" xmlns="http://www.w3.org/2000/svg" xmlns:xlink="http://www.w3.org/1999/xlink">
    <title>Combined Shape</title>
    <g id="Page-1" stroke="none" stroke-width="1" fill="none" fill-rule="evenodd">
        <g id="DiFood---Website-Design" transform="translate(-777.000000, -3813.000000)" fill="#FFFFFF" fill-rule="nonzero">
            <g id="How-does-it-work?" transform="translate(0.000000, 3162.000000)">
                <path d="M813.5,702.470703 C820.575996,702.470703 826.332031,708.226738 826.332031,715.302734 L826.332031,715.302734 L826.332031,724 L800.667969,724 L800.667969,715.302734 C800.667969,708.226738 806.424004,702.470703 813.5,702.470703 Z M837.025391,706.748047 C844.112526,706.748047 850,712.492943 850,719.580078 L850,719.580078 L850,724 L830.609375,724 L830.609375,715.302734 C830.609375,713.170746 830.170502,711.150146 829.454826,709.265999 C831.581245,707.702095 834.182739,706.748047 837.025391,706.748047 Z M789.974609,706.748047 C792.817261,706.748047 795.418755,707.702095 797.545174,709.265999 C796.829498,711.150146 796.390625,713.170746 796.390625,715.302734 L796.390625,715.302734 L796.390625,724 L777,724 L777,719.580078 C777,712.492943 782.887474,706.748047 789.974609,706.748047 Z M789.974609,689.638672 C793.512329,689.638672 796.390625,692.516968 796.390625,696.054688 C796.390625,699.592407 793.512329,702.470703 789.974609,702.470703 C786.43689,702.470703 783.558594,699.592407 783.558594,696.054688 C783.558594,692.516968 786.43689,689.638672 789.974609,689.638672 Z M837.025391,689.638672 C840.56311,689.638672 843.441406,692.516968 843.441406,696.054688 C843.441406,699.592407 840.56311,702.470703 837.025391,702.470703 C833.487671,702.470703 830.609375,699.592407 830.609375,696.054688 C830.609375,692.516968 833.487671,689.638672 837.025391,689.638672 Z M813.5,685.361328 C817.03772,685.361328 819.916016,688.239624 819.916016,691.777344 C819.916016,695.315063 817.03772,698.193359 813.5,698.193359 C809.96228,698.193359 807.083984,695.315063 807.083984,691.777344 C807.083984,688.239624 809.96228,685.361328 813.5,685.361328 Z M787.835938,651 L791.169258,658.670814 L798.529297,659.74015 L793.203224,664.934784 L794.460808,672.529297 L787.835938,669.066765 L781.211067,672.529297 L782.468651,664.934784 L777,659.74015 L784.58226,658.670814 L787.835938,651 Z M813.5,651 L816.833321,658.670814 L824.193359,659.74015 L818.867287,664.934784 L820.12487,672.529297 L813.5,669.066765 L806.87513,672.529297 L808.132713,664.934784 L802.806641,659.74015 L810.246323,658.670814 L813.5,651 Z M839.164062,651 L842.497383,658.670814 L850,659.74015 L844.531349,664.934784 L845.788933,672.529297 L839.164062,669.066765 L832.539192,672.529297 L833.796776,664.934784 L828.470703,659.74015 L835.910385,658.670814 L839.164062,651 Z" id="Combined-Shape"></path>
            </g>
        </g>
    </g>
</svg>